<svg width="36" height="36" viewBox="0 0 36 36" fill="none" xmlns="http://www.w3.org/2000/svg">
<path d="M17.4797 0C27.432 0 35.5 8.05888 35.5 18C35.5 27.9411 27.432 36 17.4797 36C10.4149 36 4.2999 31.9391 1.34607 26.0267C0.472189 24.1974 0 22.142 0 19.98C0 12.2259 6.29301 5.94 14.0558 5.94C19.7375 5.94 24.6316 9.3074 26.8475 14.1531C26.9536 14.3852 26.6103 14.5947 26.4196 14.4248C25.1457 13.2899 23.4658 12.6 21.6244 12.6C17.6434 12.6 14.4162 15.8236 14.4162 19.8C14.4162 20.1048 14.4354 20.4052 14.4722 20.7V20.7035C15.3173 25.92 19.3842 28.53 24.1472 28.53C28.9103 28.53 32.8863 25.1739 33.8391 20.7C33.9834 19.8213 34.0584 18.9194 34.0584 18C34.0584 8.85417 26.6358 1.44 17.4797 1.44C11.9613 1.44 7.07268 4.1331 4.05919 8.27532C3.99054 8.36969 3.91156 8.4562 3.82387 8.53326C2.91472 9.33215 2.1 10.2358 1.39864 11.2252C1.20939 11.4922 0.749923 11.2904 0.877582 10.9891C3.61425 4.53104 10.0172 0 17.4797 0Z" fill="url(#paint0_linear_primal)"/>
<defs>
<linearGradient id="paint0_linear_primal" x1="1.07109" y1="0.504673" x2="36.3982" y2="35.8716" gradientUnits="userSpaceOnUse">
<stop stop-color="#00E0FF"/>
<stop offset="0.481323" stop-color="#0090F8"/>
<stop offset="1" stop-color="#2554ED"/>
</linearGradient>
</defs>
</svg>
